<svg id="visual" viewBox="0 0 900 600" width="900" height="600" xmlns="http://www.w3.org/2000/svg" xmlns:xlink="http://www.w3.org/1999/xlink" version="1.1"><g stroke-width="1" stroke-linejoin="bevel"><path d="M464 308L435 325L467 422Z" fill="#e2e2e2" stroke="#e2e2e2"></path><path d="M435 325L387 410L467 422Z" fill="#e0e0e0" stroke="#e0e0e0"></path><path d="M467 422L591 387L464 308Z" fill="#efefef" stroke="#efefef"></path><path d="M379 479L492 512L467 422Z" fill="#dedede" stroke="#dedede"></path><path d="M467 422L492 512L591 387Z" fill="#ebebeb" stroke="#ebebeb"></path><path d="M387 410L379 479L467 422Z" fill="#ebebeb" stroke="#ebebeb"></path><path d="M591 387L614 280L464 308Z" fill="#ebebeb" stroke="#ebebeb"></path><path d="M371 164L315 316L435 325Z" fill="#e3e3e3" stroke="#e3e3e3"></path><path d="M435 325L315 316L387 410Z" fill="#ebebeb" stroke="#ebebeb"></path><path d="M387 410L293 360L379 479Z" fill="#ebebeb" stroke="#ebebeb"></path><path d="M371 164L435 325L464 308Z" fill="#f1f1f1" stroke="#f1f1f1"></path><path d="M315 316L293 360L387 410Z" fill="#e5e5e5" stroke="#e5e5e5"></path><path d="M492 512L594 519L591 387Z" fill="#dedede" stroke="#dedede"></path><path d="M591 387L688 335L614 280Z" fill="#ededed" stroke="#ededed"></path><path d="M614 280L539 174L464 308Z" fill="#e2e2e2" stroke="#e2e2e2"></path><path d="M685 469L679 380L591 387Z" fill="#e2e2e2" stroke="#e2e2e2"></path><path d="M679 380L688 335L591 387Z" fill="#e5e5e5" stroke="#e5e5e5"></path><path d="M614 280L613 193L539 174Z" fill="#e3e3e3" stroke="#e3e3e3"></path><path d="M229 398L337 524L379 479Z" fill="#e2e2e2" stroke="#e2e2e2"></path><path d="M379 479L436 600L492 512Z" fill="#e0e0e0" stroke="#e0e0e0"></path><path d="M492 512L538 600L594 519Z" fill="#f1f1f1" stroke="#f1f1f1"></path><path d="M738 163L613 193L762 188Z" fill="#e3e3e3" stroke="#e3e3e3"></path><path d="M539 174L371 164L464 308Z" fill="#dedede" stroke="#dedede"></path><path d="M192 302L229 398L293 360Z" fill="#e3e3e3" stroke="#e3e3e3"></path><path d="M594 519L685 469L591 387Z" fill="#e5e5e5" stroke="#e5e5e5"></path><path d="M679 380L760 380L688 335Z" fill="#e0e0e0" stroke="#e0e0e0"></path><path d="M337 524L436 600L379 479Z" fill="#ededed" stroke="#ededed"></path><path d="M436 600L538 600L492 512Z" fill="#e2e2e2" stroke="#e2e2e2"></path><path d="M594 519L670 600L685 469Z" fill="#e5e5e5" stroke="#e5e5e5"></path><path d="M192 302L293 360L315 316Z" fill="#efefef" stroke="#efefef"></path><path d="M293 360L229 398L379 479Z" fill="#dedede" stroke="#dedede"></path><path d="M613 193L569 126L539 174Z" fill="#f1f1f1" stroke="#f1f1f1"></path><path d="M500 61L375 102L371 164Z" fill="#e5e5e5" stroke="#e5e5e5"></path><path d="M375 102L290 179L371 164Z" fill="#e2e2e2" stroke="#e2e2e2"></path><path d="M371 164L290 179L315 316Z" fill="#ededed" stroke="#ededed"></path><path d="M538 600L618 600L594 519Z" fill="#f1f1f1" stroke="#f1f1f1"></path><path d="M500 61L371 164L539 174Z" fill="#dedede" stroke="#dedede"></path><path d="M685 469L760 380L679 380Z" fill="#efefef" stroke="#efefef"></path><path d="M762 188L613 193L614 280Z" fill="#dedede" stroke="#dedede"></path><path d="M613 193L708 102L569 126Z" fill="#dedede" stroke="#dedede"></path><path d="M797 511L760 380L685 469Z" fill="#e9e9e9" stroke="#e9e9e9"></path><path d="M208 214L192 302L315 316Z" fill="#ebebeb" stroke="#ebebeb"></path><path d="M125 364L200 475L229 398Z" fill="#e9e9e9" stroke="#e9e9e9"></path><path d="M229 398L200 475L337 524Z" fill="#f1f1f1" stroke="#f1f1f1"></path><path d="M337 524L283 600L436 600Z" fill="#efefef" stroke="#efefef"></path><path d="M618 600L670 600L594 519Z" fill="#e3e3e3" stroke="#e3e3e3"></path><path d="M569 126L500 61L539 174Z" fill="#dedede" stroke="#dedede"></path><path d="M200 475L283 600L337 524Z" fill="#efefef" stroke="#efefef"></path><path d="M760 380L780 314L688 335Z" fill="#e7e7e7" stroke="#e7e7e7"></path><path d="M569 126L576 0L500 61Z" fill="#e0e0e0" stroke="#e0e0e0"></path><path d="M290 179L208 214L315 316Z" fill="#ebebeb" stroke="#ebebeb"></path><path d="M224 121L208 214L290 179Z" fill="#e7e7e7" stroke="#e7e7e7"></path><path d="M762 188L614 280L688 335Z" fill="#e7e7e7" stroke="#e7e7e7"></path><path d="M780 314L762 188L688 335Z" fill="#e7e7e7" stroke="#e7e7e7"></path><path d="M285 0L276 85L375 102Z" fill="#ebebeb" stroke="#ebebeb"></path><path d="M375 102L276 85L290 179Z" fill="#dedede" stroke="#dedede"></path><path d="M834 132L708 102L738 163Z" fill="#e2e2e2" stroke="#e2e2e2"></path><path d="M738 163L708 102L613 193Z" fill="#f1f1f1" stroke="#f1f1f1"></path><path d="M670 600L797 511L685 469Z" fill="#e0e0e0" stroke="#e0e0e0"></path><path d="M900 425L900 305L780 314Z" fill="#dedede" stroke="#dedede"></path><path d="M276 85L224 121L290 179Z" fill="#ebebeb" stroke="#ebebeb"></path><path d="M117 318L125 364L192 302Z" fill="#ebebeb" stroke="#ebebeb"></path><path d="M117 318L192 302L208 214Z" fill="#e5e5e5" stroke="#e5e5e5"></path><path d="M192 302L125 364L229 398Z" fill="#ededed" stroke="#ededed"></path><path d="M200 475L176 600L283 600Z" fill="#e5e5e5" stroke="#e5e5e5"></path><path d="M67 199L117 318L208 214Z" fill="#dedede" stroke="#dedede"></path><path d="M576 0L461 0L500 61Z" fill="#e3e3e3" stroke="#e3e3e3"></path><path d="M500 61L461 0L375 102Z" fill="#ededed" stroke="#ededed"></path><path d="M276 85L205 0L224 121Z" fill="#e5e5e5" stroke="#e5e5e5"></path><path d="M461 0L392 0L375 102Z" fill="#efefef" stroke="#efefef"></path><path d="M708 102L576 0L569 126Z" fill="#ebebeb" stroke="#ebebeb"></path><path d="M130 600L176 600L88 528Z" fill="#dedede" stroke="#dedede"></path><path d="M670 600L800 600L797 511Z" fill="#e3e3e3" stroke="#e3e3e3"></path><path d="M392 0L285 0L375 102Z" fill="#efefef" stroke="#efefef"></path><path d="M224 121L67 199L208 214Z" fill="#e7e7e7" stroke="#e7e7e7"></path><path d="M88 528L176 600L200 475Z" fill="#e5e5e5" stroke="#e5e5e5"></path><path d="M88 528L200 475L125 364Z" fill="#efefef" stroke="#efefef"></path><path d="M0 471L88 528L125 364Z" fill="#e0e0e0" stroke="#e0e0e0"></path><path d="M762 188L834 132L738 163Z" fill="#e5e5e5" stroke="#e5e5e5"></path><path d="M708 102L736 0L576 0Z" fill="#ebebeb" stroke="#ebebeb"></path><path d="M900 209L834 132L762 188Z" fill="#e0e0e0" stroke="#e0e0e0"></path><path d="M900 209L762 188L780 314Z" fill="#e2e2e2" stroke="#e2e2e2"></path><path d="M780 314L760 380L900 425Z" fill="#f1f1f1" stroke="#f1f1f1"></path><path d="M900 425L760 380L797 511Z" fill="#e2e2e2" stroke="#e2e2e2"></path><path d="M900 483L900 425L797 511Z" fill="#dedede" stroke="#dedede"></path><path d="M900 600L900 483L797 511Z" fill="#efefef" stroke="#efefef"></path><path d="M99 77L67 199L224 121Z" fill="#e5e5e5" stroke="#e5e5e5"></path><path d="M117 318L0 376L125 364Z" fill="#e5e5e5" stroke="#e5e5e5"></path><path d="M776 0L736 0L708 102Z" fill="#e3e3e3" stroke="#e3e3e3"></path><path d="M900 305L900 209L780 314Z" fill="#ebebeb" stroke="#ebebeb"></path><path d="M834 132L776 0L708 102Z" fill="#e0e0e0" stroke="#e0e0e0"></path><path d="M285 0L205 0L276 85Z" fill="#e2e2e2" stroke="#e2e2e2"></path><path d="M900 0L776 0L834 132Z" fill="#efefef" stroke="#efefef"></path><path d="M205 0L99 77L224 121Z" fill="#e3e3e3" stroke="#e3e3e3"></path><path d="M0 314L0 376L117 318Z" fill="#efefef" stroke="#efefef"></path><path d="M0 314L117 318L67 199Z" fill="#e2e2e2" stroke="#e2e2e2"></path><path d="M0 176L0 314L67 199Z" fill="#efefef" stroke="#efefef"></path><path d="M900 209L900 133L834 132Z" fill="#e5e5e5" stroke="#e5e5e5"></path><path d="M800 600L900 600L797 511Z" fill="#efefef" stroke="#efefef"></path><path d="M0 376L0 471L125 364Z" fill="#efefef" stroke="#efefef"></path><path d="M88 528L0 600L130 600Z" fill="#ededed" stroke="#ededed"></path><path d="M0 95L0 176L67 199Z" fill="#efefef" stroke="#efefef"></path><path d="M205 0L100 0L99 77Z" fill="#ebebeb" stroke="#ebebeb"></path><path d="M99 77L0 95L67 199Z" fill="#e5e5e5" stroke="#e5e5e5"></path><path d="M0 471L0 600L88 528Z" fill="#e9e9e9" stroke="#e9e9e9"></path><path d="M0 0L0 95L99 77Z" fill="#efefef" stroke="#efefef"></path><path d="M900 133L900 0L834 132Z" fill="#ededed" stroke="#ededed"></path><path d="M100 0L0 0L99 77Z" fill="#e7e7e7" stroke="#e7e7e7"></path></g></svg>